<?xml version="1.0" standalone="no"?>
<!DOCTYPE svg PUBLIC "-//W3C//DTD SVG 20010904//EN"
 "http://www.w3.org/TR/2001/REC-SVG-20010904/DTD/svg10.dtd">
<svg version="1.0" xmlns="http://www.w3.org/2000/svg"
 width="180.000000pt" height="72.000000pt" viewBox="0 0 180.000000 72.000000"
 preserveAspectRatio="xMidYMid meet">

<g transform="translate(0.000000,72.000000) scale(0.100000,-0.100000)"
fill="#000000" stroke="none">
<path d="M1455 650 c-3 -5 -35 -10 -70 -10 -53 0 -66 -3 -75 -19 -18 -34 -11
-41 35 -41 38 0 45 -3 45 -20 0 -17 -7 -20 -43 -20 -41 0 -44 -2 -54 -35 l-11
-35 54 0 c47 0 54 -3 54 -19 0 -15 -8 -21 -32 -23 -32 -3 -33 -4 -49 -78 -33
-158 -34 -142 8 -138 l38 3 16 80 17 80 1 -82 1 -83 35 0 35 0 0 71 c0 62 3
72 19 76 15 4 41 47 41 69 0 1 -12 4 -27 6 -35 4 -41 25 -10 37 20 8 36 35 37
63 0 4 -12 8 -27 10 -35 4 -41 25 -9 39 20 9 46 52 46 75 0 9 -69 3 -75 -6z"/>
<path d="M1666 652 c-3 -5 -5 -69 -4 -143 l1 -134 -72 -3 c-47 -2 -71 -7 -71
-15 0 -7 -3 -22 -6 -34 -6 -21 -3 -22 72 -25 l78 -3 0 -40 c1 -39 2 -40 39
-43 l37 -3 0 45 c0 33 4 46 14 46 8 0 19 14 25 31 14 41 15 39 -14 39 l-25 0
0 145 0 145 -34 0 c-19 0 -37 -4 -40 -8z"/>
<path d="M791 619 c-6 -18 -11 -34 -11 -35 0 -2 41 -4 90 -4 73 0 90 -3 90
-15 0 -9 -9 -15 -24 -15 -26 0 -40 -14 -49 -47 l-5 -23 138 0 c116 0 139 -2
144 -16 16 -42 12 -44 -124 -44 l-131 0 -14 -32 c-7 -18 -11 -36 -9 -40 3 -5
68 -8 145 -8 l139 0 0 -24 c0 -13 -7 -27 -16 -30 -20 -8 -248 -8 -268 0 -13 5
-16 27 -16 135 l0 129 -35 0 -35 0 0 -164 c0 -140 2 -165 16 -170 9 -3 92 -6
186 -6 168 0 172 0 205 26 l33 25 0 133 c0 89 -4 136 -12 144 -8 8 -46 12
-106 12 -70 0 -93 3 -90 13 3 8 36 13 105 15 l100 3 10 34 11 35 -228 0 -228
0 -11 -31z"/>
<path d="M1559 588 c14 -40 23 -54 40 -56 46 -7 51 2 33 57 -15 49 -17 51 -53
51 l-38 0 18 -52z"/>
<path d="M1530 497 c0 -2 7 -24 16 -50 15 -45 18 -47 54 -47 l38 0 -16 50
c-16 48 -18 50 -54 50 -21 0 -38 -1 -38 -3z"/>
<path d="M1530 135 c0 -10 -10 -15 -30 -15 -28 0 -30 -3 -30 -35 0 -35 0 -35
45 -35 l45 0 0 50 c0 38 -4 50 -15 50 -8 0 -15 -7 -15 -15z m0 -56 c0 -10 -7
-19 -15 -19 -15 0 -21 31 -9 43 11 10 24 -3 24 -24z"/>
<path d="M1015 112 c-12 -13 -4 -62 10 -62 9 0 15 9 15 25 0 16 6 25 15 25 9
0 15 -9 15 -25 0 -16 6 -25 15 -25 9 0 15 9 15 25 0 14 5 25 10 25 6 0 10 -11
10 -25 0 -16 6 -25 15 -25 10 0 15 11 15 35 l0 34 -65 -1 c-36 -1 -67 -4 -70
-6z"/>
<path d="M1160 85 c0 -33 2 -35 33 -34 23 1 26 3 10 6 -15 3 -23 12 -23 24 0
11 10 24 23 29 20 8 19 9 -10 9 -31 1 -33 -1 -33 -34z"/>
<path d="M1240 84 c0 -19 5 -34 10 -34 6 0 10 11 10 25 0 16 6 25 15 25 9 0
15 -9 15 -25 0 -16 6 -25 15 -25 9 0 15 9 15 25 0 14 5 25 10 25 6 0 10 -11
10 -25 0 -16 6 -25 15 -25 10 0 15 10 15 34 l0 35 -65 -1 -65 -1 0 -33z"/>
<path d="M1380 85 c0 -34 1 -35 40 -35 39 0 40 1 40 35 0 34 -1 35 -40 35 -39
0 -40 -1 -40 -35z m58 -3 c2 -15 -2 -22 -12 -22 -11 0 -16 9 -16 26 0 31 23
28 28 -4z"/>
<path d="M1600 85 c0 -33 2 -35 33 -34 23 1 26 3 10 6 -16 3 -23 11 -23 28 0
17 7 25 23 28 16 3 13 5 -10 6 -31 1 -33 -1 -33 -34z"/>
<path d="M1670 84 c0 -24 5 -34 15 -34 9 0 15 9 15 25 0 16 6 25 15 25 9 0 15
-9 15 -25 0 -16 6 -25 16 -25 11 0 14 8 12 33 -3 30 -5 32 -45 34 -43 2 -43 1
-43 -33z"/>
</g>
</svg>
