<?xml version="1.0" standalone="no"?>
<!DOCTYPE svg PUBLIC "-//W3C//DTD SVG 20010904//EN"
 "http://www.w3.org/TR/2001/REC-SVG-20010904/DTD/svg10.dtd">
<svg version="1.0" xmlns="http://www.w3.org/2000/svg"
 width="180.000000pt" height="180.000000pt" viewBox="0 0 180.000000 180.000000"
 preserveAspectRatio="xMidYMid meet">

<g transform="translate(0.000000,180.000000) scale(0.100000,-0.100000)"
fill="#000000" stroke="none">
<path d="M0 900 l0 -900 900 0 900 0 0 900 0 900 -900 0 -900 0 0 -900z m758
63 l62 -97 0 97 c0 90 1 97 20 97 19 0 20 -7 20 -130 0 -128 0 -130 -22 -130
-18 0 -37 22 -85 97 l-63 98 0 -98 c0 -93 -1 -98 -20 -95 -19 3 -21 10 -21
123 -1 147 -4 135 24 135 19 0 36 -20 85 -97z m302 77 c0 -17 -7 -20 -45 -20
-45 0 -45 0 -45 -35 0 -34 1 -35 40 -35 33 0 40 -3 40 -20 0 -17 -7 -20 -40
-20 -39 0 -40 -1 -40 -35 l0 -35 50 0 c43 0 50 -3 50 -20 0 -18 -7 -20 -75
-20 l-75 0 0 130 0 130 70 0 c63 0 70 -2 70 -20z m210 0 c0 -16 -7 -20 -35
-20 l-35 0 0 -110 c0 -103 -1 -110 -20 -110 -19 0 -20 7 -20 110 l0 110 -35 0
c-28 0 -35 4 -35 20 0 19 7 20 90 20 83 0 90 -1 90 -20z m-672 -213 c4 -22
-24 -33 -43 -17 -12 10 -13 16 -4 27 16 18 43 13 47 -10z"/>
</g>
</svg>
