<?xml version="1.0" standalone="no"?><!DOCTYPE svg PUBLIC "-//W3C//DTD SVG 1.1//EN" "http://www.w3.org/Graphics/SVG/1.1/DTD/svg11.dtd"><svg t="1707463040262" class="icon" viewBox="0 0 1024 1024" version="1.1" xmlns="http://www.w3.org/2000/svg" p-id="16122" xmlns:xlink="http://www.w3.org/1999/xlink" width="200" height="200"><path d="M747.946667 135.253333c3.413333-4.693333 7.253333-9.813333 6.826666-15.786666-0.426667-9.813333-9.386667-16.213333-18.346666-18.346667-14.08-2.56-20.48 4.693333-27.733334 14.933333-12.8 17.493333-24.746667 35.413333-35.413333 54.613334-15.786667-16.64-5.12-46.933333-11.946667-67.84-4.266667-12.373333-16.213333-27.733333-31.146666-26.026667-28.16 3.84-17.066667 66.133333-14.506667 86.186667v0.426666c2.133333 10.24-3.413333 11.093333-16.64 2.986667-1.28-2.56-2.56-5.546667-3.84-8.106667-2.133333-4.266667-3.84-8.96-6.4-12.8-3.84-5.546667-8.533333-10.666667-14.506667-13.226666-13.653333-5.973333-26.453333 0.426667-29.44 14.933333-3.413333 17.493333 5.546667 37.546667 12.373334 52.906667 10.24 21.76 24.32 41.386667 38.826666 60.586666-6.826667 14.506667-32.426667 13.226667-41.386666 27.306667-5.546667 8.533333-5.546667 21.333333 3.413333 27.733333 5.12 3.84 11.093333 3.413333 17.066667 3.84 11.093333 0.426667 21.76 0.426667 32.853333 1.28 23.04 1.706667 47.36 4.266667 65.28 20.053334 5.12 21.76 5.973333 43.946667 1.706667 65.706666-1.706667 8.106667-3.413333 18.773333-7.68 26.026667-6.826667 11.52-20.053333 12.8-32.426667 13.226667-100.266667-166.826667-243.2-279.04-244.48-279.893334l-26.026667-20.053333 5.973334 32.426667c23.04 121.173333 3.84 290.133333 0 322.986666-1.28 8.96-2.986667 20.906667-4.693334 34.56-4.266667 9.813333-9.386667 19.626667-16.213333 28.16-11.946667 14.506667-28.16 24.746667-36.693333 41.813334-18.346667 35.84-2.56 84.48 3.84 121.6 0.426667 1.706667 1.28 2.986667 2.56 3.84-1.28 4.266667-2.56 8.533333-4.266667 12.373333-2.986667 8.106667-5.546667 18.346667-9.813333 25.173333-5.12 7.68-14.506667 11.946667-20.906667 18.346667-7.68 7.253333-11.52 11.52-14.08 22.186667-0.853333 2.986667 0.853333 6.826667 4.266667 7.68 8.106667 2.986667 13.226667 8.106667 15.786666 15.36 1.28 2.56 4.693333 3.413333 6.826667 2.986666 6.4-1.28 18.346667-7.253333 23.466667-2.986666-2.56 17.92-4.693333 32.853333-5.546667 42.24-1.706667 14.08-0.853333 25.173333 1.706667 34.986666 2.986667 10.666667 11.52 18.773333 23.466666 22.186667 13.653333 3.84 28.586667 0.853333 38.4-7.68 17.493333-15.36 54.613333-51.2 64.426667-62.293333 32.426667-31.573333 63.573333-45.653333 92.586667-41.386667 37.973333 5.546667 63.573333 42.24 75.093333 63.573333 31.573333 57.6 58.88 65.28 70.4 65.28 2.56 0 4.266667-0.426667 5.12-0.426666l1.28-0.426667c44.8-16.213333 49.066667-87.466667 47.36-154.88-2.133333-85.76-19.2-168.96-49.92-246.186667 2.986667-13.226667 4.266667-26.026667 2.986667-40.533333-2.133333-23.04-6.4-47.786667-2.133334-70.826667 3.413333-18.346667 5.546667-35.84 5.12-55.04 0-3.84 0-7.253333-0.426666-10.666666 1.28-19.626667-2.56-40.106667 15.786666-53.333334 11.093333-8.106667 19.2-12.8 23.466667-26.88 12.373333-41.386667-9.813333-85.76 4.266667-126.72 2.986667-11.946667 8.533333-20.053333 14.08-28.16z m-133.973334 44.8c0.426667 0 0 0 0 0z m-294.4 635.306667c0-0.426667 0.426667-0.426667 0 0 0.426667-0.426667 0.426667 0 0 0 0.426667 0 0 0 0 0z m22.613334-132.693333c-0.426667 3.84-1.28 7.253333-1.706667 11.093333-4.693333 2.986667-8.533333 7.253333-11.946667 11.946667-5.546667-36.693333-9.386667-108.8 24.746667-96.426667-2.986667 23.466667-7.253333 48.64-11.093333 73.386667z m337.066666 239.786666c-2.133333-0.426667-21.76-4.693333-47.786666-52.48-23.893333-43.946667-57.173333-70.826667-93.013334-76.373333-4.693333-0.853333-9.386667-0.853333-14.08-0.853333-32.426667 0-66.133333 16.64-99.84 49.493333l-0.853333 0.853333c-8.106667 9.386667-44.373333 44.373333-62.72 60.586667-3.413333 2.986667-9.813333 3.84-14.933333 2.56-1.706667-0.426667-5.546667-2.133333-6.4-5.12-1.706667-5.973333-2.133333-14.506667-0.853334-25.173333 2.986667-29.44 15.786667-110.933333 28.16-189.44 10.24-66.56 20.906667-135.253333 26.453334-173.653334 13.226667 0.853333 23.04 2.986667 34.986666 10.666667 8.96 5.546667 18.346667 9.813333 28.586667 12.8 22.613333 5.973333 46.933333 3.84 67.84-5.973333 17.92-8.533333 32.853333-23.04 42.666667-40.106667 9.386667-16.64 8.106667-56.746667 23.466666-66.986667 10.666667 16.213333 21.333333 32.853333 31.146667 49.92 54.613333 94.72 84.48 205.226667 87.466667 319.146667 0.426667 28.586667 2.56 116.48-30.293334 130.133333z" fill="#231815" p-id="16123"></path><path d="M431.549331 490.812789a46.506667 66.986667 68.939 1 0 125.023695-48.144882 46.506667 66.986667 68.939 1 0-125.023695 48.144882Z" fill="#ED242A" p-id="16124"></path><path d="M709.546667 791.893333c0.853333 29.013333 2.986667 116.906667-30.293334 130.56-2.133333-0.426667-21.76-4.693333-47.786666-52.48-23.893333-43.946667-57.173333-70.826667-93.013334-76.373333-4.693333-0.853333-9.386667-0.853333-14.08-0.853333-32.426667 0-66.133333 16.64-99.84 49.493333l-0.853333 0.853333c-8.106667 9.386667-44.373333 44.373333-62.72 60.586667-3.413333 2.986667-9.813333 3.84-14.933333 2.56-1.706667-0.426667-5.546667-2.133333-6.4-5.12-1.706667-5.973333-2.133333-14.506667-0.853334-25.173333 2.986667-29.44 15.786667-110.933333 28.16-189.44 10.24-66.56 20.906667-135.253333 26.453334-173.653334 13.226667 0.853333 23.04 2.986667 34.986666 10.666667 8.96 5.546667 18.346667 9.813333 28.586667 12.8 22.613333 5.973333 46.933333 3.84 67.84-5.973333 17.92-8.533333 32.853333-23.04 42.666667-40.106667 9.386667-16.64 8.106667-56.746667 23.466666-66.986667 10.666667 16.213333 21.333333 32.853333 31.146667 49.92 54.186667 94.293333 84.48 204.8 87.466667 318.72z" fill="#FFFFFF" p-id="16125"></path></svg>