<?xml version="1.0" standalone="no"?><!DOCTYPE svg PUBLIC "-//W3C//DTD SVG 1.1//EN" "http://www.w3.org/Graphics/SVG/1.1/DTD/svg11.dtd"><svg t="1707401654328" class="icon" viewBox="0 0 1024 1024" version="1.1" xmlns="http://www.w3.org/2000/svg" p-id="12188" xmlns:xlink="http://www.w3.org/1999/xlink" width="200" height="200"><path d="M512 64c-233.258667 0-426.666667 190.421333-426.666667 420.010667 0 112 45.525333 207.189333 113.792 285.610666v134.4c0 27.989333 28.416 55.978667 56.874667 55.978667h512c28.458667 0 56.874667-27.989333 56.874667-56.021333v-134.4C893.141333 696.832 938.666667 596.053333 938.666667 484.053333 938.666667 254.421333 745.258667 64 512 64z m227.541333 627.2l-28.416 33.621333v123.178667h-56.917333v-56.021333H597.333333v56.021333h-56.874666v-56.021333h-56.917334v56.021333H426.666667v-56.021333H369.792v56.021333H312.874667v-123.178667l-28.416-33.621333c-56.917333-56.021333-85.333333-128.810667-85.333334-207.189333C199.125333 315.989333 341.333333 176 512 176s312.874667 139.989333 312.874667 308.010667c0 78.378667-28.416 151.168-85.333334 207.189333zM289.706667 535.594667c0 45.568 37.674667 82.517333 84.138666 82.517333s84.096-36.949333 84.096-82.517333c0-45.610667-37.632-82.56-84.096-82.56-46.506667 0-84.138667 36.949333-84.138666 82.56z m276.437333 0c0 29.44 16 56.746667 42.069333 71.466666 26.026667 14.72 58.069333 14.72 84.096 0 26.026667-14.762667 42.069333-41.984 42.069334-71.466666 0-45.610667-37.674667-82.56-84.138667-82.56s-84.096 36.949333-84.096 82.56z" fill="#1F1F1F" p-id="12189"></path></svg>